<svg width="34" height="34" viewBox="0 0 34 34" fill="none" xmlns="http://www.w3.org/2000/svg">
<circle cx="16.8925" cy="17" r="15.8925" stroke="#EA580C" stroke-width="2"/>
<path d="M22.2273 20.0066C21.3431 20.0066 20.4877 19.8628 19.6898 19.604C19.5648 19.5617 19.4304 19.5554 19.302 19.5859C19.1736 19.6164 19.0564 19.6825 18.9638 19.7766L17.8352 21.1927C15.801 20.2222 13.8961 18.3892 12.8825 16.2831L14.2842 15.0898C14.4783 14.8885 14.5358 14.6082 14.4567 14.3566C14.1908 13.5587 14.0542 12.7033 14.0542 11.8191C14.0542 11.431 13.7307 11.1075 13.3426 11.1075H10.8554C10.4672 11.1075 10 11.28 10 11.8191C10 18.4971 15.5566 24.0464 22.2273 24.0464C22.7377 24.0464 22.9389 23.5936 22.9389 23.1982V20.7182C22.9389 20.3301 22.6155 20.0066 22.2273 20.0066Z" fill="#EA580C"/>
</svg>
