<svg width="35" height="34" viewBox="0 0 35 34" fill="none" xmlns="http://www.w3.org/2000/svg">
<circle cx="17.6775" cy="17" r="15.8925" stroke="#EA580C" stroke-width="2"/>
<path fill-rule="evenodd" clip-rule="evenodd" d="M8.78497 12.4075V22.8075C8.78497 23.5225 9.36354 24.1075 10.0707 24.1075H25.4993C26.2064 24.1075 26.785 23.5225 26.785 22.8075V12.4075C26.785 11.6925 26.2064 11.1075 25.4993 11.1075H10.0707C9.36354 11.1075 8.78497 11.6925 8.78497 12.4075ZM25.4993 12.4075L17.785 18.9075L10.0707 12.4075H25.4993ZM10.0707 14.3575L15.2135 18.2575L10.0707 22.1575V14.3575ZM11.3564 22.8075L15.8564 18.9075L17.785 20.8575L19.7135 18.9075L24.2135 22.8075H11.3564ZM25.4993 22.1575L20.3564 18.2575L25.4993 14.3575V22.1575Z" fill="#EA580C"/>
</svg>
